<svg xmlns="http://www.w3.org/2000/svg" xmlns:xlink="http://www.w3.org/1999/xlink" width="500" zoomAndPan="magnify" viewBox="0 0 375 374.999991" height="500" preserveAspectRatio="xMidYMid meet" version="1.0"><defs><clipPath id="98c21cb13b"><path d="M 22.480469 18.09375 L 352.402344 18.09375 L 352.402344 348.015625 L 22.480469 348.015625 Z M 22.480469 18.09375 " clip-rule="nonzero"/></clipPath><clipPath id="af313711e9"><path d="M 187.441406 18.09375 C 96.335938 18.09375 22.480469 91.949219 22.480469 183.054688 C 22.480469 274.160156 96.335938 348.015625 187.441406 348.015625 C 278.546875 348.015625 352.402344 274.160156 352.402344 183.054688 C 352.402344 91.949219 278.546875 18.09375 187.441406 18.09375 Z M 187.441406 18.09375 " clip-rule="nonzero"/></clipPath><clipPath id="14068a5fd6"><path d="M 24.460938 20.078125 L 350.417969 20.078125 L 350.417969 346.035156 L 24.460938 346.035156 Z M 24.460938 20.078125 " clip-rule="nonzero"/></clipPath><clipPath id="531779a58b"><path d="M 187.441406 20.078125 C 97.429688 20.078125 24.460938 93.042969 24.460938 183.054688 C 24.460938 273.066406 97.429688 346.035156 187.441406 346.035156 C 277.449219 346.035156 350.417969 273.066406 350.417969 183.054688 C 350.417969 93.042969 277.449219 20.078125 187.441406 20.078125 Z M 187.441406 20.078125 " clip-rule="nonzero"/></clipPath><clipPath id="66627b057c"><path d="M 32.582031 28.199219 L 342.296875 28.199219 L 342.296875 337.914062 L 32.582031 337.914062 Z M 32.582031 28.199219 " clip-rule="nonzero"/></clipPath><clipPath id="47e2802c28"><path d="M 187.441406 28.199219 C 101.914062 28.199219 32.582031 97.53125 32.582031 183.054688 C 32.582031 268.582031 101.914062 337.914062 187.441406 337.914062 C 272.964844 337.914062 342.296875 268.582031 342.296875 183.054688 C 342.296875 97.53125 272.964844 28.199219 187.441406 28.199219 Z M 187.441406 28.199219 " clip-rule="nonzero"/></clipPath><clipPath id="09f84d39c2"><path d="M 150 69.871094 L 221 69.871094 L 221 220 L 150 220 Z M 150 69.871094 " clip-rule="nonzero"/></clipPath><clipPath id="4de03c9cdc"><path d="M 80.621094 229 L 155 229 L 155 278 L 80.621094 278 Z M 80.621094 229 " clip-rule="nonzero"/></clipPath><clipPath id="b66ef416b3"><path d="M 233 256 L 294.371094 256 L 294.371094 296.371094 L 233 296.371094 Z M 233 256 " clip-rule="nonzero"/></clipPath></defs><g clip-path="url(#98c21cb13b)"><g clip-path="url(#af313711e9)"><path fill="#ffffff" d="M 22.480469 18.09375 L 352.402344 18.09375 L 352.402344 348.015625 L 22.480469 348.015625 Z M 22.480469 18.09375 " fill-opacity="1" fill-rule="nonzero"/></g></g><g clip-path="url(#14068a5fd6)"><g clip-path="url(#531779a58b)"><path stroke-linecap="butt" transform="matrix(0.75, 0, 0, 0.75, 24.46204, 20.076217)" fill="none" stroke-linejoin="miter" d="M 217.305835 0.00254421 C 97.290203 0.00254421 -0.00147044 97.289009 -0.00147044 217.304642 C -0.00147044 337.320275 97.290203 434.611948 217.305835 434.611948 C 337.31626 434.611948 434.607933 337.320275 434.607933 217.304642 C 434.607933 97.289009 337.31626 0.00254421 217.305835 0.00254421 Z M 217.305835 0.00254421 " stroke="#383535" stroke-width="8" stroke-opacity="1" stroke-miterlimit="4"/></g></g><g clip-path="url(#66627b057c)"><g clip-path="url(#47e2802c28)"><path stroke-linecap="butt" transform="matrix(0.75, 0, 0, 0.75, 32.583683, 28.19786)" fill="none" stroke-linejoin="miter" d="M 206.476978 0.00181232 C 92.440512 0.00181232 -0.00220201 92.444527 -0.00220201 206.475784 C -0.00220201 320.51225 92.440512 412.954964 206.476978 412.954964 C 320.508236 412.954964 412.95095 320.51225 412.95095 206.475784 C 412.95095 92.444527 320.508236 0.00181232 206.476978 0.00181232 Z M 206.476978 0.00181232 " stroke="#383535" stroke-width="2" stroke-opacity="1" stroke-miterlimit="4"/></g></g><path fill="#ff914d" d="M 254.90625 189.71875 L 223.726562 167.707031 L 223.726562 164.445312 L 254.90625 186.453125 Z M 254.90625 197.347656 L 223.726562 175.335938 L 223.726562 172.078125 L 254.90625 194.085938 Z M 254.90625 204.980469 L 223.726562 182.972656 L 223.726562 179.707031 L 254.90625 201.714844 Z M 254.90625 212.609375 L 223.726562 190.601562 L 223.726562 187.335938 L 254.90625 209.34375 Z M 254.90625 220.238281 L 223.726562 198.230469 L 223.726562 194.96875 L 254.90625 216.980469 Z M 254.90625 227.871094 L 223.726562 205.863281 L 223.726562 202.597656 L 254.90625 224.605469 Z M 254.90625 235.503906 L 223.726562 213.492188 L 223.726562 210.230469 L 254.90625 232.238281 Z M 223.726562 157.617188 L 216.996094 161.492188 L 216.996094 221.398438 L 220.058594 221.785156 L 221.59375 221.980469 L 222.714844 223.050781 L 229.578125 229.617188 L 246.621094 241.652344 L 251.789062 240.929688 L 223.726562 221.121094 L 223.726562 217.859375 L 254.90625 239.871094 L 254.90625 240.492188 L 255.785156 240.371094 L 258.421875 240.003906 L 258.785156 240.457031 L 258.785156 182.363281 Z M 210.6875 165.132812 L 210.6875 189.96875 L 208.960938 189.96875 L 208.960938 166.125 L 202.9375 169.597656 L 202.9375 208.429688 L 201.734375 208.429688 L 201.734375 170.292969 L 197.804688 172.554688 L 197.804688 213.078125 L 210.386719 213.078125 L 210.386719 220.566406 L 214.472656 221.082031 L 214.472656 162.949219 L 210.6875 165.132812 " fill-opacity="1" fill-rule="nonzero"/><path fill="#000000" d="M 194.355469 260.507812 L 194.695312 260.808594 L 194.695312 263.503906 L 194.355469 263.207031 L 193.113281 262.105469 L 193.113281 259.410156 L 194.355469 260.507812 " fill-opacity="1" fill-rule="nonzero"/><g clip-path="url(#09f84d39c2)"><path fill="#000000" d="M 218.5 123.179688 L 210.941406 116.488281 L 210.941406 101.550781 L 218.5 108.242188 Z M 218.5 140.8125 L 210.941406 134.121094 L 210.941406 119.183594 L 218.5 125.878906 Z M 209.582031 115.285156 L 204.671875 110.9375 L 202.019531 108.59375 L 202.019531 93.652344 L 204.671875 96 L 209.582031 100.347656 Z M 209.582031 132.917969 L 204.671875 128.570312 L 202.019531 126.226562 L 202.019531 111.289062 L 204.671875 113.632812 L 209.582031 117.980469 Z M 209.582031 150.554688 L 204.671875 146.207031 L 202.019531 143.863281 L 202.019531 128.925781 L 204.671875 131.269531 L 209.582031 135.613281 Z M 200.664062 107.390625 L 199.515625 106.371094 L 194.355469 101.808594 L 193.109375 100.703125 L 193.109375 85.765625 L 194.355469 86.875 L 199.515625 91.433594 L 200.664062 92.453125 Z M 200.664062 125.023438 L 199.515625 124.003906 L 194.355469 119.441406 L 193.109375 118.335938 L 193.109375 103.398438 L 194.355469 104.503906 L 199.515625 109.066406 L 200.664062 110.085938 Z M 200.664062 142.660156 L 199.515625 141.640625 L 194.355469 137.078125 L 193.109375 135.972656 L 193.109375 121.03125 L 194.355469 122.136719 L 199.515625 126.703125 L 200.664062 127.71875 Z M 200.664062 160.292969 L 199.515625 159.273438 L 194.355469 154.710938 L 193.109375 153.605469 L 193.109375 138.667969 L 194.355469 139.773438 L 199.515625 144.335938 L 200.664062 145.355469 Z M 191.746094 99.5 L 189.199219 97.246094 L 184.695312 93.261719 L 184.1875 92.808594 L 184.1875 77.871094 L 184.695312 78.324219 L 189.199219 82.308594 L 191.746094 84.5625 Z M 191.746094 117.132812 L 189.199219 114.878906 L 184.695312 110.894531 L 184.1875 110.441406 L 184.1875 95.503906 L 184.695312 95.957031 L 189.199219 99.941406 L 191.746094 102.199219 Z M 191.746094 134.765625 L 189.199219 132.515625 L 184.695312 128.527344 L 184.1875 128.078125 L 184.1875 113.136719 L 184.695312 113.59375 L 189.199219 117.574219 L 191.746094 119.832031 Z M 191.746094 152.402344 L 189.199219 150.144531 L 184.695312 146.160156 L 184.1875 145.710938 L 184.1875 130.773438 L 184.695312 131.226562 L 189.199219 135.207031 L 191.746094 137.460938 Z M 191.746094 170.035156 L 189.199219 167.777344 L 184.695312 163.796875 L 184.1875 163.34375 L 184.1875 148.402344 L 184.695312 148.855469 L 189.199219 152.839844 L 191.746094 155.097656 Z M 191.746094 187.667969 L 189.199219 185.410156 L 184.695312 181.429688 L 184.1875 180.972656 L 184.1875 166.039062 L 184.695312 166.488281 L 189.199219 170.472656 L 191.746094 172.730469 Z M 191.746094 205.300781 L 189.199219 203.042969 L 184.695312 199.0625 L 184.1875 198.609375 L 184.1875 183.671875 L 184.695312 184.125 L 189.199219 188.109375 L 191.746094 190.363281 Z M 218.65625 103.59375 L 209.507812 95.496094 L 204.351562 90.929688 L 199.195312 86.367188 L 194.035156 81.804688 L 188.882812 77.238281 L 184.378906 73.253906 L 180.652344 69.957031 L 150.40625 91.804688 L 150.40625 125.523438 L 171.230469 133.996094 L 173.167969 134.78125 L 173.167969 217.226562 L 187.445312 219.132812 L 184.695312 216.699219 L 184.1875 216.242188 L 184.1875 201.308594 L 184.695312 201.757812 L 189.199219 205.742188 L 191.746094 208 L 191.746094 213.078125 L 193.109375 213.078125 L 193.109375 209.203125 L 193.113281 209.207031 L 193.113281 206.511719 L 193.109375 206.503906 L 193.109375 191.566406 L 193.113281 191.574219 L 193.113281 188.878906 L 193.109375 188.871094 L 193.109375 173.933594 L 193.113281 173.9375 L 193.113281 171.246094 L 193.109375 171.238281 L 193.109375 156.296875 L 194.355469 157.40625 L 199.515625 161.964844 L 200.664062 162.984375 L 200.664062 165.496094 L 202.019531 164.714844 L 202.019531 164.1875 L 202.382812 164.507812 L 204.222656 163.445312 L 202.019531 161.496094 L 202.019531 146.558594 L 204.671875 148.902344 L 209.582031 153.246094 L 209.582031 160.355469 L 210.941406 159.570312 L 210.941406 154.449219 L 214.441406 157.554688 L 214.65625 157.429688 L 216.285156 156.488281 L 210.941406 151.753906 L 210.941406 136.816406 L 218.5 143.515625 L 218.5 155.214844 L 220.894531 153.835938 L 220.894531 105.578125 L 218.65625 103.59375 " fill-opacity="1" fill-rule="nonzero"/></g><path fill="#ff914d" d="M 116.074219 148.203125 L 142.25 133.578125 L 142.25 139.527344 L 145.171875 137.453125 L 168.421875 146.910156 L 168.421875 138.511719 L 142.871094 128.121094 L 116.074219 148.203125 " fill-opacity="1" fill-rule="nonzero"/><path fill="#ff914d" d="M 116.074219 162.183594 L 142.25 147.558594 L 142.25 153.507812 L 145.171875 151.4375 L 168.421875 160.890625 L 168.421875 152.492188 L 142.871094 142.101562 L 116.074219 162.183594 " fill-opacity="1" fill-rule="nonzero"/><path fill="#ff914d" d="M 116.074219 176.164062 L 142.25 161.535156 L 142.25 167.488281 L 145.171875 165.417969 L 168.421875 174.871094 L 168.421875 166.472656 L 142.871094 156.082031 L 116.074219 176.164062 " fill-opacity="1" fill-rule="nonzero"/><path fill="#ff914d" d="M 116.074219 190.144531 L 142.25 175.519531 L 142.25 181.46875 L 145.171875 179.394531 L 168.421875 188.851562 L 168.421875 180.453125 L 142.871094 170.0625 L 116.074219 190.144531 " fill-opacity="1" fill-rule="nonzero"/><path fill="#ff914d" d="M 116.074219 204.125 L 142.25 189.5 L 142.25 195.449219 L 145.171875 193.375 L 168.421875 202.832031 L 168.421875 194.433594 L 142.871094 184.042969 L 116.074219 204.125 " fill-opacity="1" fill-rule="nonzero"/><path fill="#ff914d" d="M 116.074219 218.105469 L 122.621094 213.195312 L 120.804688 215.460938 Z M 116.074219 218.105469 " fill-opacity="1" fill-rule="nonzero"/><path fill="#ff914d" d="M 168.421875 208.414062 L 168.421875 216.8125 L 167.621094 216.484375 L 145.171875 207.355469 L 142.246094 209.429688 L 142.246094 203.480469 L 128.347656 211.246094 L 127.214844 211.09375 L 125.699219 210.890625 L 142.871094 198.023438 L 168.421875 208.414062 " fill-opacity="1" fill-rule="nonzero"/><path fill="#ff914d" d="M 147.1875 213.757812 L 141.535156 213.003906 L 142.871094 212.003906 Z M 147.1875 213.757812 " fill-opacity="1" fill-rule="nonzero"/><g clip-path="url(#4de03c9cdc)"><path fill="#000000" d="M 154.234375 258.683594 C 153.753906 258.28125 135.515625 246.160156 126.589844 238.867188 L 80.617188 277.945312 L 123.179688 233.214844 L 126.589844 229.628906 L 132.378906 235.714844 L 154.234375 258.683594 " fill-opacity="1" fill-rule="nonzero"/></g><path fill="#000000" d="M 207.238281 241.992188 L 189.066406 241.992188 L 189.066406 248.28125 L 181.859375 249.160156 L 180.308594 249.34375 L 179.179688 250.425781 L 165.78125 263.25 L 126.589844 222.066406 L 93.96875 256.347656 L 126.59375 215.742188 L 191.582031 224.414062 L 191.582031 232.355469 L 195.003906 235.949219 L 195.003906 217.765625 L 205.695312 217.765625 L 205.695312 224.703125 L 219.472656 226.4375 L 236.800781 243.023438 L 207.238281 247.152344 L 207.238281 241.992188 " fill-opacity="1" fill-rule="nonzero"/><path fill="#000000" d="M 117.640625 261.976562 L 117.640625 263.992188 L 125.035156 263.992188 L 125.035156 254.585938 C 120.953125 254.585938 117.640625 257.894531 117.640625 261.976562 " fill-opacity="1" fill-rule="nonzero"/><path fill="#000000" d="M 127.945312 254.585938 L 127.945312 263.992188 L 135.339844 263.992188 L 135.339844 261.976562 C 135.339844 257.894531 132.03125 254.585938 127.945312 254.585938 " fill-opacity="1" fill-rule="nonzero"/><path fill="#000000" d="M 117.640625 274.289062 L 125.035156 274.289062 L 125.035156 266.898438 L 117.640625 266.898438 L 117.640625 274.289062 " fill-opacity="1" fill-rule="nonzero"/><path fill="#000000" d="M 127.945312 274.289062 L 135.339844 274.289062 L 135.339844 266.898438 L 127.945312 266.898438 L 127.945312 274.289062 " fill-opacity="1" fill-rule="nonzero"/><g clip-path="url(#b66ef416b3)"><path fill="#000000" d="M 294.242188 296.171875 L 267.664062 273.585938 L 256.433594 264.035156 C 253.027344 266.820312 247.976562 270.453125 243.5 273.585938 C 238.324219 277.207031 233.910156 280.15625 233.699219 280.332031 L 240.117188 273.585938 L 251.671875 261.441406 L 253.753906 259.253906 L 256.433594 256.4375 L 259.238281 259.386719 L 294.242188 296.171875 " fill-opacity="1" fill-rule="nonzero"/></g><path fill="#000000" d="M 283.265625 278.410156 L 256.433594 250.214844 L 250.65625 256.285156 L 234.199219 273.585938 L 216.113281 292.585938 L 141.917969 292.585938 L 169.011719 266.648438 L 182.421875 253.8125 L 193.753906 252.4375 L 193.753906 246.679688 L 202.546875 246.679688 L 202.546875 261.636719 L 205.359375 258.679688 L 205.359375 252.148438 L 241.117188 247.15625 L 256.433594 245.015625 L 283.265625 278.410156 " fill-opacity="1" fill-rule="nonzero"/><path fill="#000000" d="M 263.792969 283.042969 L 263.792969 284.699219 L 257.710938 284.699219 L 257.710938 276.960938 C 261.070312 276.960938 263.792969 279.683594 263.792969 283.042969 " fill-opacity="1" fill-rule="nonzero"/><path fill="#000000" d="M 255.316406 276.960938 L 255.316406 284.699219 L 249.238281 284.699219 L 249.238281 283.042969 C 249.238281 279.683594 251.960938 276.960938 255.316406 276.960938 " fill-opacity="1" fill-rule="nonzero"/><path fill="#000000" d="M 263.792969 293.167969 L 257.710938 293.167969 L 257.710938 287.085938 L 263.792969 287.085938 L 263.792969 293.167969 " fill-opacity="1" fill-rule="nonzero"/><path fill="#000000" d="M 255.316406 293.167969 L 249.238281 293.167969 L 249.238281 287.085938 L 255.316406 287.085938 L 255.316406 293.167969 " fill-opacity="1" fill-rule="nonzero"/><path fill="#000000" d="M 167.621094 216.484375 L 168.421875 216.8125 L 168.421875 216.59375 Z M 167.621094 216.484375 " fill-opacity="1" fill-rule="nonzero"/></svg>