<svg xmlns="http://www.w3.org/2000/svg" xmlns:xlink="http://www.w3.org/1999/xlink" width="500" zoomAndPan="magnify" viewBox="0 0 375 374.999991" height="500" preserveAspectRatio="xMidYMid meet" version="1.0"><defs><g/><clipPath id="86f68721f5"><path d="M 24.460938 20.078125 L 350.421875 20.078125 L 350.421875 346.035156 L 24.460938 346.035156 Z M 24.460938 20.078125 " clip-rule="nonzero"/></clipPath><clipPath id="1062bd86c2"><path d="M 187.441406 20.078125 C 97.429688 20.078125 24.460938 93.042969 24.460938 183.054688 C 24.460938 273.066406 97.429688 346.035156 187.441406 346.035156 C 277.453125 346.035156 350.421875 273.066406 350.421875 183.054688 C 350.421875 93.042969 277.453125 20.078125 187.441406 20.078125 Z M 187.441406 20.078125 " clip-rule="nonzero"/></clipPath><clipPath id="54c3f7bbf4"><path d="M 32.582031 28.199219 L 342.289062 28.199219 L 342.289062 337.902344 L 32.582031 337.902344 Z M 32.582031 28.199219 " clip-rule="nonzero"/></clipPath><clipPath id="65817f19c2"><path d="M 187.4375 28.199219 C 101.914062 28.199219 32.582031 97.527344 32.582031 183.050781 C 32.582031 268.574219 101.914062 337.902344 187.4375 337.902344 C 272.960938 337.902344 342.289062 268.574219 342.289062 183.050781 C 342.289062 97.527344 272.960938 28.199219 187.4375 28.199219 Z M 187.4375 28.199219 " clip-rule="nonzero"/></clipPath><clipPath id="bb99c2e095"><path d="M 24.460938 269.792969 L 350.421875 269.792969 L 350.421875 366.710938 L 24.460938 366.710938 Z M 24.460938 269.792969 " clip-rule="nonzero"/></clipPath><clipPath id="4b9a58f7eb"><path d="M 150 56.269531 L 221 56.269531 L 221 206 L 150 206 Z M 150 56.269531 " clip-rule="nonzero"/></clipPath><clipPath id="afde8fac2a"><path d="M 80.621094 216 L 155 216 L 155 265 L 80.621094 265 Z M 80.621094 216 " clip-rule="nonzero"/></clipPath><clipPath id="2962e7d4a1"><path d="M 233 242 L 294.542969 242 L 294.542969 282.644531 L 233 282.644531 Z M 233 242 " clip-rule="nonzero"/></clipPath></defs><rect x="-37.5" width="450" fill="#ffffff" y="-37.499999" height="449.999989" fill-opacity="1"/><rect x="-37.5" width="450" fill="#ffffff" y="-37.499999" height="449.999989" fill-opacity="1"/><g clip-path="url(#86f68721f5)"><g clip-path="url(#1062bd86c2)"><path stroke-linecap="butt" transform="matrix(1.131862, 0, 0, 1.131862, 24.462044, 20.076215)" fill="none" stroke-linejoin="miter" d="M 143.992236 0.00168734 C 64.4669 0.00168734 -0.000977534 64.466113 -0.000977534 143.99145 C -0.000977534 223.516787 64.4669 287.984664 143.992236 287.984664 C 223.517573 287.984664 287.98545 223.516787 287.98545 143.99145 C 287.98545 64.466113 223.517573 0.00168734 143.992236 0.00168734 Z M 143.992236 0.00168734 " stroke="#383535" stroke-width="5.300999" stroke-opacity="1" stroke-miterlimit="4"/></g></g><g clip-path="url(#54c3f7bbf4)"><g clip-path="url(#65817f19c2)"><path stroke-linecap="butt" transform="matrix(1.131862, 0, 0, 1.131862, 32.583686, 28.19786)" fill="none" stroke-linejoin="miter" d="M 136.813316 0.00120089 C 61.253375 0.00120089 -0.00146229 61.252587 -0.00146229 136.812528 C -0.00146229 212.372469 61.253375 273.623855 136.813316 273.623855 C 212.373257 273.623855 273.624643 212.372469 273.624643 136.812528 C 273.624643 61.252587 212.373257 0.00120089 136.813316 0.00120089 Z M 136.813316 0.00120089 " stroke="#383535" stroke-width="1.32525" stroke-opacity="1" stroke-miterlimit="4"/></g></g><g clip-path="url(#bb99c2e095)"><path fill="#ffffff" d="M 24.460938 269.792969 L 350.425781 269.792969 L 350.425781 366.710938 L 24.460938 366.710938 Z M 24.460938 269.792969 " fill-opacity="1" fill-rule="nonzero"/></g><path fill="#ff914d" d="M 254.910156 176.121094 L 223.730469 154.109375 L 223.730469 150.84375 L 254.910156 172.855469 Z M 254.910156 183.75 L 223.730469 161.738281 L 223.730469 158.476562 L 254.910156 180.488281 Z M 254.910156 191.382812 L 223.730469 169.371094 L 223.730469 166.109375 L 254.910156 188.117188 Z M 254.910156 199.015625 L 223.730469 177 L 223.730469 173.738281 L 254.910156 195.746094 Z M 254.910156 206.640625 L 223.730469 184.632812 L 223.730469 181.371094 L 254.910156 203.382812 Z M 254.910156 214.273438 L 223.730469 192.265625 L 223.730469 189 L 254.910156 211.011719 Z M 254.910156 221.90625 L 223.730469 199.894531 L 223.730469 196.632812 L 254.910156 218.640625 Z M 223.730469 144.015625 L 217 147.894531 L 217 207.800781 L 220.0625 208.1875 L 221.597656 208.382812 L 222.71875 209.453125 L 229.582031 216.023438 L 246.628906 228.054688 L 251.792969 227.332031 L 223.730469 207.523438 L 223.730469 204.261719 L 254.910156 226.273438 L 254.910156 226.894531 L 255.789062 226.777344 L 258.425781 226.40625 L 258.789062 226.859375 L 258.789062 168.765625 Z M 210.691406 151.53125 L 210.691406 176.371094 L 208.964844 176.371094 L 208.964844 152.527344 L 202.941406 156 L 202.941406 194.832031 L 201.738281 194.832031 L 201.738281 156.695312 L 197.808594 158.957031 L 197.808594 199.480469 L 210.390625 199.480469 L 210.390625 206.96875 L 214.476562 207.484375 L 214.476562 149.347656 L 210.691406 151.53125 " fill-opacity="1" fill-rule="nonzero"/><path fill="#000000" d="M 194.359375 246.914062 L 194.699219 247.210938 L 194.699219 249.90625 L 194.359375 249.609375 L 193.117188 248.511719 L 193.117188 245.816406 L 194.359375 246.914062 " fill-opacity="1" fill-rule="nonzero"/><g clip-path="url(#4b9a58f7eb)"><path fill="#000000" d="M 218.503906 109.582031 L 210.945312 102.886719 L 210.945312 87.949219 L 218.503906 94.644531 Z M 218.503906 127.214844 L 210.945312 120.523438 L 210.945312 105.582031 L 218.503906 112.277344 Z M 209.585938 101.683594 L 204.675781 97.335938 L 202.023438 94.992188 L 202.023438 80.050781 L 204.675781 82.398438 L 209.585938 86.746094 Z M 209.585938 119.316406 L 204.675781 114.972656 L 202.023438 112.628906 L 202.023438 97.6875 L 204.675781 100.03125 L 209.585938 104.378906 Z M 209.585938 136.953125 L 204.675781 132.605469 L 202.023438 130.261719 L 202.023438 115.324219 L 204.675781 117.667969 L 209.585938 122.015625 Z M 200.667969 93.789062 L 199.519531 92.769531 L 194.359375 88.207031 L 193.109375 87.101562 L 193.109375 72.167969 L 194.359375 73.273438 L 199.519531 77.832031 L 200.667969 78.851562 Z M 200.667969 111.425781 L 199.519531 110.40625 L 194.359375 105.84375 L 193.109375 104.734375 L 193.109375 89.796875 L 194.359375 90.902344 L 199.519531 95.46875 L 200.667969 96.484375 Z M 200.667969 129.058594 L 199.519531 128.039062 L 194.359375 123.476562 L 193.109375 122.371094 L 193.109375 107.429688 L 194.359375 108.539062 L 199.519531 113.101562 L 200.667969 114.121094 Z M 200.667969 146.695312 L 199.519531 145.675781 L 194.359375 141.113281 L 193.109375 140.007812 L 193.109375 125.066406 L 194.359375 126.175781 L 199.519531 130.738281 L 200.667969 131.753906 Z M 191.75 85.898438 L 189.199219 83.644531 L 184.699219 79.660156 L 184.191406 79.207031 L 184.191406 64.269531 L 184.699219 64.722656 L 189.199219 68.707031 L 191.75 70.960938 Z M 191.75 103.535156 L 189.199219 101.28125 L 184.699219 97.292969 L 184.191406 96.84375 L 184.191406 81.902344 L 184.699219 82.359375 L 189.199219 86.339844 L 191.75 88.597656 Z M 191.75 121.167969 L 189.199219 118.914062 L 184.699219 114.929688 L 184.191406 114.476562 L 184.191406 99.539062 L 184.699219 99.992188 L 189.199219 103.976562 L 191.75 106.230469 Z M 191.75 138.804688 L 189.199219 136.542969 L 184.699219 132.5625 L 184.191406 132.109375 L 184.191406 117.171875 L 184.699219 117.625 L 189.199219 121.609375 L 191.75 123.863281 Z M 191.75 156.4375 L 189.199219 154.179688 L 184.699219 150.195312 L 184.191406 149.746094 L 184.191406 134.804688 L 184.699219 135.257812 L 189.199219 139.242188 L 191.75 141.496094 Z M 191.75 174.070312 L 189.199219 171.8125 L 184.699219 167.832031 L 184.191406 167.375 L 184.191406 152.441406 L 184.699219 152.890625 L 189.199219 156.875 L 191.75 159.132812 Z M 191.75 191.703125 L 189.199219 189.445312 L 184.699219 185.464844 L 184.191406 185.011719 L 184.191406 170.074219 L 184.699219 170.527344 L 189.199219 174.511719 L 191.75 176.765625 Z M 218.660156 89.992188 L 209.511719 81.894531 L 204.355469 77.328125 L 199.199219 72.765625 L 194.039062 68.203125 L 188.882812 63.636719 L 184.382812 59.652344 L 180.65625 56.355469 L 150.410156 78.203125 L 150.410156 111.925781 L 171.234375 120.394531 L 173.171875 121.179688 L 173.171875 203.628906 L 187.449219 205.535156 L 184.699219 203.101562 L 184.191406 202.648438 L 184.191406 187.710938 L 184.699219 188.160156 L 189.199219 192.144531 L 191.75 194.402344 L 191.75 199.480469 L 193.109375 199.480469 L 193.109375 195.605469 L 193.117188 195.609375 L 193.117188 192.914062 L 193.109375 192.90625 L 193.109375 177.96875 L 193.117188 177.976562 L 193.117188 175.28125 L 193.109375 175.273438 L 193.109375 160.332031 L 193.117188 160.339844 L 193.117188 157.644531 L 193.109375 157.636719 L 193.109375 142.699219 L 194.359375 143.804688 L 199.519531 148.367188 L 200.667969 149.386719 L 200.667969 151.898438 L 202.023438 151.113281 L 202.023438 150.589844 L 202.382812 150.910156 L 204.226562 149.847656 L 202.023438 147.898438 L 202.023438 132.957031 L 204.675781 135.304688 L 209.585938 139.648438 L 209.585938 146.757812 L 210.945312 145.972656 L 210.945312 140.851562 L 214.445312 143.953125 L 214.660156 143.832031 L 216.289062 142.890625 L 210.945312 138.15625 L 210.945312 123.21875 L 218.503906 129.914062 L 218.503906 141.617188 L 220.898438 140.238281 L 220.898438 91.976562 L 218.660156 89.992188 " fill-opacity="1" fill-rule="nonzero"/></g><path fill="#ff914d" d="M 116.074219 134.601562 L 142.25 119.976562 L 142.25 125.929688 L 145.171875 123.855469 L 168.421875 133.308594 L 168.421875 124.914062 L 142.875 114.523438 L 116.074219 134.601562 " fill-opacity="1" fill-rule="nonzero"/><path fill="#ff914d" d="M 116.074219 148.585938 L 142.25 133.957031 L 142.25 139.910156 L 145.171875 137.835938 L 168.421875 147.292969 L 168.421875 138.894531 L 142.875 128.503906 L 116.074219 148.585938 " fill-opacity="1" fill-rule="nonzero"/><path fill="#ff914d" d="M 116.074219 162.566406 L 142.25 147.9375 L 142.25 153.890625 L 145.171875 151.816406 L 168.421875 161.269531 L 168.421875 152.875 L 142.875 142.484375 L 116.074219 162.566406 " fill-opacity="1" fill-rule="nonzero"/><path fill="#ff914d" d="M 116.074219 176.546875 L 142.25 161.917969 L 142.25 167.871094 L 145.171875 165.796875 L 168.421875 175.253906 L 168.421875 166.855469 L 142.875 156.464844 L 116.074219 176.546875 " fill-opacity="1" fill-rule="nonzero"/><path fill="#ff914d" d="M 116.074219 190.527344 L 142.25 175.898438 L 142.25 181.851562 L 145.171875 179.777344 L 168.421875 189.234375 L 168.421875 180.835938 L 142.875 170.445312 L 116.074219 190.527344 " fill-opacity="1" fill-rule="nonzero"/><path fill="#ff914d" d="M 116.074219 204.507812 L 122.625 199.601562 L 120.804688 201.863281 Z M 116.074219 204.507812 " fill-opacity="1" fill-rule="nonzero"/><path fill="#ff914d" d="M 168.421875 194.816406 L 168.421875 203.214844 L 167.625 202.886719 L 145.171875 193.757812 L 142.25 195.832031 L 142.25 189.882812 L 128.351562 197.648438 L 125.699219 197.292969 L 142.871094 184.425781 L 168.421875 194.816406 " fill-opacity="1" fill-rule="nonzero"/><path fill="#ff914d" d="M 147.191406 200.160156 L 141.535156 199.40625 L 142.871094 198.40625 Z M 147.191406 200.160156 " fill-opacity="1" fill-rule="nonzero"/><g clip-path="url(#afde8fac2a)"><path fill="#000000" d="M 154.238281 245.085938 C 153.753906 244.683594 135.515625 232.5625 126.589844 225.269531 L 80.617188 264.347656 L 123.179688 219.617188 L 126.589844 216.03125 L 132.378906 222.117188 L 154.238281 245.085938 " fill-opacity="1" fill-rule="nonzero"/></g><path fill="#000000" d="M 207.242188 228.394531 L 189.066406 228.394531 L 189.066406 234.6875 L 181.863281 235.5625 L 180.3125 235.75 L 179.183594 236.828125 L 165.78125 249.652344 L 126.589844 208.46875 L 93.96875 242.75 L 126.59375 202.144531 L 191.585938 210.816406 L 191.585938 218.757812 L 195.003906 222.355469 L 195.003906 204.167969 L 205.699219 204.167969 L 205.699219 211.105469 L 219.476562 212.839844 L 236.804688 229.425781 L 207.242188 233.554688 L 207.242188 228.394531 " fill-opacity="1" fill-rule="nonzero"/><path fill="#000000" d="M 117.644531 248.382812 L 117.644531 250.398438 L 125.035156 250.398438 L 125.035156 240.988281 C 120.953125 240.988281 117.644531 244.296875 117.644531 248.382812 " fill-opacity="1" fill-rule="nonzero"/><path fill="#000000" d="M 127.949219 240.988281 L 127.949219 250.398438 L 135.339844 250.398438 L 135.339844 248.382812 C 135.339844 244.296875 132.03125 240.988281 127.949219 240.988281 " fill-opacity="1" fill-rule="nonzero"/><path fill="#000000" d="M 117.644531 260.695312 L 125.035156 260.695312 L 125.035156 253.300781 L 117.644531 253.300781 L 117.644531 260.695312 " fill-opacity="1" fill-rule="nonzero"/><path fill="#000000" d="M 127.949219 260.695312 L 135.339844 260.695312 L 135.339844 253.300781 L 127.949219 253.300781 L 127.949219 260.695312 " fill-opacity="1" fill-rule="nonzero"/><g clip-path="url(#2962e7d4a1)"><path fill="#000000" d="M 294.25 282.578125 L 267.671875 259.988281 L 256.4375 250.441406 C 253.035156 253.222656 247.980469 256.855469 243.503906 259.988281 C 238.328125 263.613281 233.914062 266.558594 233.703125 266.734375 L 240.121094 259.988281 L 251.675781 247.847656 L 253.757812 245.65625 L 256.4375 242.839844 L 259.246094 245.789062 L 294.25 282.578125 " fill-opacity="1" fill-rule="nonzero"/></g><path fill="#000000" d="M 283.269531 264.816406 L 256.4375 236.621094 L 250.660156 242.691406 L 234.203125 259.988281 L 216.117188 278.992188 L 141.917969 278.992188 L 169.015625 253.050781 L 182.425781 240.214844 L 193.757812 238.839844 L 193.757812 233.085938 L 202.550781 233.085938 L 202.550781 248.042969 L 205.363281 245.082031 L 205.363281 238.550781 L 241.121094 233.558594 L 256.4375 231.417969 L 283.269531 264.816406 " fill-opacity="1" fill-rule="nonzero"/><path fill="#000000" d="M 263.796875 269.445312 L 263.796875 271.105469 L 257.71875 271.105469 L 257.71875 263.367188 C 261.074219 263.367188 263.796875 266.089844 263.796875 269.445312 " fill-opacity="1" fill-rule="nonzero"/><path fill="#000000" d="M 255.324219 263.367188 L 255.324219 271.105469 L 249.242188 271.105469 L 249.242188 269.445312 C 249.242188 266.089844 251.964844 263.367188 255.324219 263.367188 " fill-opacity="1" fill-rule="nonzero"/><path fill="#000000" d="M 263.796875 279.570312 L 257.71875 279.570312 L 257.71875 273.492188 L 263.796875 273.492188 L 263.796875 279.570312 " fill-opacity="1" fill-rule="nonzero"/><path fill="#000000" d="M 255.324219 279.570312 L 249.242188 279.570312 L 249.242188 273.492188 L 255.324219 273.492188 L 255.324219 279.570312 " fill-opacity="1" fill-rule="nonzero"/><path fill="#000000" d="M 167.625 202.886719 L 168.421875 203.214844 L 168.421875 202.996094 Z M 167.625 202.886719 " fill-opacity="1" fill-rule="nonzero"/><g fill="#000000" fill-opacity="1"><g transform="translate(22.442709, 340.407136)"><g><path d="M 40.34375 -49.84375 C 45.632812 -49.84375 49.710938 -48.691406 52.578125 -46.390625 C 55.441406 -44.097656 56.875 -41.054688 56.875 -37.265625 C 56.875 -35.773438 56.648438 -34.207031 56.203125 -32.5625 C 54.804688 -27.570312 52.050781 -23.878906 47.9375 -21.484375 C 43.820312 -19.085938 38.617188 -17.890625 32.328125 -17.890625 L 24.625 -17.890625 L 22.078125 -8.828125 C 21.972656 -8.523438 21.921875 -8.128906 21.921875 -7.640625 C 21.921875 -6.941406 22.082031 -6.363281 22.40625 -5.90625 C 22.738281 -5.457031 23.226562 -4.9375 23.875 -4.34375 C 24.425781 -3.84375 24.800781 -3.46875 25 -3.21875 C 25.195312 -2.96875 25.296875 -2.664062 25.296875 -2.3125 C 25.296875 -1.46875 24.894531 -0.867188 24.09375 -0.515625 C 23.300781 -0.171875 22.128906 0 20.578125 0 L 1.796875 0 C 0.492188 0 -0.476562 -0.234375 -1.125 -0.703125 C -1.769531 -1.179688 -1.992188 -1.84375 -1.796875 -2.6875 C -1.691406 -3.144531 -1.503906 -3.507812 -1.234375 -3.78125 C -0.960938 -4.050781 -0.550781 -4.363281 0 -4.71875 C 0.84375 -5.21875 1.515625 -5.738281 2.015625 -6.28125 C 2.515625 -6.832031 2.914062 -7.679688 3.21875 -8.828125 L 12.34375 -41.09375 C 12.550781 -41.738281 12.65625 -42.359375 12.65625 -42.953125 C 12.65625 -43.503906 12.566406 -43.96875 12.390625 -44.34375 C 12.210938 -44.71875 11.972656 -45.15625 11.671875 -45.65625 C 11.222656 -46.300781 11 -46.820312 11 -47.21875 C 11 -47.375 11.050781 -47.648438 11.15625 -48.046875 C 11.351562 -48.691406 11.785156 -49.148438 12.453125 -49.421875 C 13.128906 -49.703125 14.164062 -49.84375 15.5625 -49.84375 Z M 38.390625 -33.90625 C 38.941406 -35.75 39.21875 -37.367188 39.21875 -38.765625 C 39.21875 -41.660156 37.867188 -43.109375 35.171875 -43.109375 L 31.8125 -43.109375 L 26.5 -24.625 L 29.78125 -24.625 C 31.882812 -24.625 33.59375 -25.285156 34.90625 -26.609375 C 36.226562 -27.929688 37.390625 -30.363281 38.390625 -33.90625 Z M 38.390625 -33.90625 "/></g></g></g><g fill="#000000" fill-opacity="1"><g transform="translate(73.561355, 340.407136)"><g><path d="M 36.75 -39.59375 C 39.539062 -39.59375 41.769531 -38.742188 43.4375 -37.046875 C 45.113281 -35.347656 45.953125 -33.253906 45.953125 -30.765625 C 45.953125 -29.816406 45.851562 -28.941406 45.65625 -28.140625 C 45.15625 -26.097656 44.207031 -24.523438 42.8125 -23.421875 C 41.414062 -22.328125 39.742188 -21.78125 37.796875 -21.78125 C 35.898438 -21.78125 34.460938 -22.226562 33.484375 -23.125 C 32.515625 -24.019531 31.65625 -25.21875 30.90625 -26.71875 C 30.507812 -27.5625 30.132812 -28.179688 29.78125 -28.578125 C 29.4375 -28.984375 29.039062 -29.1875 28.59375 -29.1875 C 28.09375 -29.1875 27.65625 -28.984375 27.28125 -28.578125 C 26.90625 -28.179688 26.566406 -27.488281 26.265625 -26.5 L 20.5 -7.78125 C 20.40625 -7.53125 20.359375 -7.15625 20.359375 -6.65625 C 20.359375 -6.007812 20.546875 -5.472656 20.921875 -5.046875 C 21.296875 -4.628906 21.804688 -4.21875 22.453125 -3.8125 C 23.046875 -3.414062 23.441406 -3.09375 23.640625 -2.84375 C 23.847656 -2.59375 23.925781 -2.269531 23.875 -1.875 C 23.769531 -1.21875 23.40625 -0.738281 22.78125 -0.4375 C 22.164062 -0.144531 21.109375 0 19.609375 0 L 0.453125 0 C -0.847656 0 -1.785156 -0.207031 -2.359375 -0.625 C -2.929688 -1.050781 -3.144531 -1.613281 -3 -2.3125 C -2.789062 -2.914062 -2.265625 -3.441406 -1.421875 -3.890625 C -0.671875 -4.285156 -0.046875 -4.757812 0.453125 -5.3125 C 0.953125 -5.863281 1.375 -6.738281 1.71875 -7.9375 L 8.375 -29.5625 C 8.476562 -29.8125 8.53125 -30.160156 8.53125 -30.609375 C 8.53125 -31.160156 8.414062 -31.582031 8.1875 -31.875 C 7.96875 -32.175781 7.609375 -32.550781 7.109375 -33 C 6.609375 -33.40625 6.257812 -33.753906 6.0625 -34.046875 C 5.863281 -34.347656 5.835938 -34.75 5.984375 -35.25 C 6.285156 -36.394531 7.859375 -37.40625 10.703125 -38.28125 C 13.546875 -39.15625 16.515625 -39.59375 19.609375 -39.59375 C 21.648438 -39.59375 23.34375 -39.128906 24.6875 -38.203125 C 26.039062 -37.285156 26.914062 -35.976562 27.3125 -34.28125 C 29.707031 -37.820312 32.851562 -39.59375 36.75 -39.59375 Z M 36.75 -39.59375 "/></g></g></g><g fill="#000000" fill-opacity="1"><g transform="translate(116.896204, 340.407136)"><g><path d="M 28.96875 -39.59375 C 35.75 -39.59375 40.75 -38.21875 43.96875 -35.46875 C 47.1875 -32.726562 48.796875 -29.140625 48.796875 -24.703125 C 48.796875 -23.203125 48.597656 -21.53125 48.203125 -19.6875 C 47.253906 -15.59375 45.484375 -12.007812 42.890625 -8.9375 C 40.296875 -5.875 37.113281 -3.503906 33.34375 -1.828125 C 29.570312 -0.160156 25.492188 0.671875 21.109375 0.671875 C 14.171875 0.671875 9.039062 -0.710938 5.71875 -3.484375 C 2.40625 -6.253906 0.75 -9.929688 0.75 -14.515625 C 0.75 -16.066406 0.945312 -17.789062 1.34375 -19.6875 C 2.289062 -23.570312 4.097656 -27.023438 6.765625 -30.046875 C 9.441406 -33.066406 12.710938 -35.410156 16.578125 -37.078125 C 20.441406 -38.753906 24.570312 -39.59375 28.96875 -39.59375 Z M 28.734375 -32.9375 C 27.691406 -32.9375 26.582031 -32 25.40625 -30.125 C 24.238281 -28.25 22.851562 -24.71875 21.25 -19.53125 C 19.65625 -14.34375 18.859375 -10.703125 18.859375 -8.609375 C 18.859375 -7.503906 19.03125 -6.765625 19.375 -6.390625 C 19.726562 -6.023438 20.207031 -5.84375 20.8125 -5.84375 C 21.851562 -5.738281 22.9375 -6.632812 24.0625 -8.53125 C 25.1875 -10.425781 26.597656 -14.117188 28.296875 -19.609375 C 29.835938 -24.453125 30.609375 -27.96875 30.609375 -30.15625 C 30.609375 -31.207031 30.445312 -31.929688 30.125 -32.328125 C 29.800781 -32.734375 29.335938 -32.9375 28.734375 -32.9375 Z M 28.734375 -32.9375 "/></g></g></g><g fill="#000000" fill-opacity="1"><g transform="translate(165.994058, 340.407136)"><g><path d="M 39.140625 -39.890625 C 42.984375 -39.890625 46.003906 -38.613281 48.203125 -36.0625 C 50.398438 -33.519531 51.5 -30.054688 51.5 -25.671875 C 51.5 -23.328125 51.171875 -20.859375 50.515625 -18.265625 C 49.023438 -12.078125 46.234375 -7.375 42.140625 -4.15625 C 38.046875 -0.9375 33.304688 0.671875 27.921875 0.671875 C 24.472656 0.671875 21.476562 -0.0507812 18.9375 -1.5 L 16.546875 6.515625 C 16.335938 7.054688 16.234375 7.578125 16.234375 8.078125 C 16.234375 8.628906 16.359375 9.09375 16.609375 9.46875 C 16.859375 9.84375 17.1875 10.203125 17.59375 10.546875 C 17.988281 10.953125 18.25 11.28125 18.375 11.53125 C 18.5 11.78125 18.507812 12.078125 18.40625 12.421875 C 18.207031 13.066406 17.734375 13.523438 16.984375 13.796875 C 16.234375 14.078125 15.085938 14.21875 13.546875 14.21875 L -3.59375 14.21875 C -4.882812 14.21875 -5.816406 14.003906 -6.390625 13.578125 C -6.972656 13.160156 -7.140625 12.625 -6.890625 11.96875 C -6.785156 11.570312 -6.609375 11.25 -6.359375 11 C -6.109375 10.75 -5.757812 10.523438 -5.3125 10.328125 C -4.5625 9.828125 -3.960938 9.316406 -3.515625 8.796875 C -3.066406 8.273438 -2.664062 7.4375 -2.3125 6.28125 L 8.609375 -29.5625 C 8.753906 -30.007812 8.828125 -30.382812 8.828125 -30.6875 C 8.828125 -31.238281 8.703125 -31.675781 8.453125 -32 C 8.203125 -32.320312 7.828125 -32.65625 7.328125 -33 C 6.835938 -33.40625 6.488281 -33.753906 6.28125 -34.046875 C 6.082031 -34.347656 6.0625 -34.75 6.21875 -35.25 C 6.507812 -36.394531 8.078125 -37.40625 10.921875 -38.28125 C 13.765625 -39.15625 16.734375 -39.59375 19.828125 -39.59375 C 22.023438 -39.59375 23.832031 -39.039062 25.25 -37.9375 C 26.675781 -36.84375 27.488281 -35.320312 27.6875 -33.375 C 31.082031 -37.71875 34.898438 -39.890625 39.140625 -39.890625 Z M 30.46875 -17.65625 C 31.65625 -22.101562 32.25 -25.175781 32.25 -26.875 C 32.25 -27.914062 32.085938 -28.597656 31.765625 -28.921875 C 31.441406 -29.242188 30.984375 -29.40625 30.390625 -29.40625 C 29.941406 -29.40625 29.367188 -29.191406 28.671875 -28.765625 C 27.972656 -28.347656 27.269531 -27.640625 26.5625 -26.640625 L 20.65625 -7.03125 C 21.257812 -6.4375 21.984375 -6.140625 22.828125 -6.140625 C 24.171875 -6.140625 25.453125 -6.898438 26.671875 -8.421875 C 27.898438 -9.941406 29.164062 -13.019531 30.46875 -17.65625 Z M 30.46875 -17.65625 "/></g></g></g><g fill="#000000" fill-opacity="1"><g transform="translate(217.711468, 340.407136)"><g><path d="M 36.75 -39.59375 C 39.539062 -39.59375 41.769531 -38.742188 43.4375 -37.046875 C 45.113281 -35.347656 45.953125 -33.253906 45.953125 -30.765625 C 45.953125 -29.816406 45.851562 -28.941406 45.65625 -28.140625 C 45.15625 -26.097656 44.207031 -24.523438 42.8125 -23.421875 C 41.414062 -22.328125 39.742188 -21.78125 37.796875 -21.78125 C 35.898438 -21.78125 34.460938 -22.226562 33.484375 -23.125 C 32.515625 -24.019531 31.65625 -25.21875 30.90625 -26.71875 C 30.507812 -27.5625 30.132812 -28.179688 29.78125 -28.578125 C 29.4375 -28.984375 29.039062 -29.1875 28.59375 -29.1875 C 28.09375 -29.1875 27.65625 -28.984375 27.28125 -28.578125 C 26.90625 -28.179688 26.566406 -27.488281 26.265625 -26.5 L 20.5 -7.78125 C 20.40625 -7.53125 20.359375 -7.15625 20.359375 -6.65625 C 20.359375 -6.007812 20.546875 -5.472656 20.921875 -5.046875 C 21.296875 -4.628906 21.804688 -4.21875 22.453125 -3.8125 C 23.046875 -3.414062 23.441406 -3.09375 23.640625 -2.84375 C 23.847656 -2.59375 23.925781 -2.269531 23.875 -1.875 C 23.769531 -1.21875 23.40625 -0.738281 22.78125 -0.4375 C 22.164062 -0.144531 21.109375 0 19.609375 0 L 0.453125 0 C -0.847656 0 -1.785156 -0.207031 -2.359375 -0.625 C -2.929688 -1.050781 -3.144531 -1.613281 -3 -2.3125 C -2.789062 -2.914062 -2.265625 -3.441406 -1.421875 -3.890625 C -0.671875 -4.285156 -0.046875 -4.757812 0.453125 -5.3125 C 0.953125 -5.863281 1.375 -6.738281 1.71875 -7.9375 L 8.375 -29.5625 C 8.476562 -29.8125 8.53125 -30.160156 8.53125 -30.609375 C 8.53125 -31.160156 8.414062 -31.582031 8.1875 -31.875 C 7.96875 -32.175781 7.609375 -32.550781 7.109375 -33 C 6.609375 -33.40625 6.257812 -33.753906 6.0625 -34.046875 C 5.863281 -34.347656 5.835938 -34.75 5.984375 -35.25 C 6.285156 -36.394531 7.859375 -37.40625 10.703125 -38.28125 C 13.546875 -39.15625 16.515625 -39.59375 19.609375 -39.59375 C 21.648438 -39.59375 23.34375 -39.128906 24.6875 -38.203125 C 26.039062 -37.285156 26.914062 -35.976562 27.3125 -34.28125 C 29.707031 -37.820312 32.851562 -39.59375 36.75 -39.59375 Z M 36.75 -39.59375 "/></g></g></g><g fill="#000000" fill-opacity="1"><g transform="translate(261.046317, 340.407136)"><g><path d="M 19.671875 -39.59375 C 22.566406 -39.59375 24.6875 -39.039062 26.03125 -37.9375 C 27.382812 -36.84375 28.0625 -35.347656 28.0625 -33.453125 C 28.0625 -32.304688 27.882812 -31.207031 27.53125 -30.15625 L 20.65625 -7.78125 C 20.5 -7.1875 20.421875 -6.664062 20.421875 -6.21875 C 20.421875 -5.5625 20.546875 -5.046875 20.796875 -4.671875 C 21.046875 -4.296875 21.394531 -3.9375 21.84375 -3.59375 C 22.195312 -3.238281 22.445312 -2.945312 22.59375 -2.71875 C 22.75 -2.5 22.773438 -2.21875 22.671875 -1.875 C 22.421875 -1.21875 21.921875 -0.738281 21.171875 -0.4375 C 20.421875 -0.144531 19.273438 0 17.734375 0 L 0.671875 0 C -0.628906 0 -1.578125 -0.207031 -2.171875 -0.625 C -2.773438 -1.050781 -2.976562 -1.613281 -2.78125 -2.3125 C -2.570312 -2.914062 -2.046875 -3.441406 -1.203125 -3.890625 C -0.453125 -4.285156 0.171875 -4.757812 0.671875 -5.3125 C 1.171875 -5.863281 1.59375 -6.738281 1.9375 -7.9375 L 8.453125 -29.5625 C 8.597656 -30.007812 8.671875 -30.382812 8.671875 -30.6875 C 8.671875 -31.238281 8.546875 -31.675781 8.296875 -32 C 8.046875 -32.320312 7.671875 -32.65625 7.171875 -33 C 6.679688 -33.40625 6.332031 -33.753906 6.125 -34.046875 C 5.925781 -34.347656 5.90625 -34.75 6.0625 -35.25 C 6.351562 -36.394531 7.921875 -37.40625 10.765625 -38.28125 C 13.609375 -39.15625 16.578125 -39.59375 19.671875 -39.59375 Z M 24.703125 -56.125 C 26.648438 -56.125 28.269531 -55.488281 29.5625 -54.21875 C 30.863281 -52.945312 31.515625 -51.390625 31.515625 -49.546875 C 31.515625 -48.242188 31.175781 -46.96875 30.5 -45.71875 C 29.820312 -44.476562 28.875 -43.46875 27.65625 -42.6875 C 26.4375 -41.914062 25.078125 -41.53125 23.578125 -41.53125 C 21.679688 -41.53125 20.097656 -42.164062 18.828125 -43.4375 C 17.554688 -44.71875 16.894531 -46.304688 16.84375 -48.203125 C 16.84375 -49.453125 17.164062 -50.6875 17.8125 -51.90625 C 18.457031 -53.125 19.378906 -54.128906 20.578125 -54.921875 C 21.773438 -55.722656 23.148438 -56.125 24.703125 -56.125 Z M 24.703125 -56.125 "/></g></g></g><g fill="#000000" fill-opacity="1"><g transform="translate(288.439329, 340.407136)"><g><path d="M 28.96875 -39.59375 C 35.75 -39.59375 40.75 -38.21875 43.96875 -35.46875 C 47.1875 -32.726562 48.796875 -29.140625 48.796875 -24.703125 C 48.796875 -23.203125 48.597656 -21.53125 48.203125 -19.6875 C 47.253906 -15.59375 45.484375 -12.007812 42.890625 -8.9375 C 40.296875 -5.875 37.113281 -3.503906 33.34375 -1.828125 C 29.570312 -0.160156 25.492188 0.671875 21.109375 0.671875 C 14.171875 0.671875 9.039062 -0.710938 5.71875 -3.484375 C 2.40625 -6.253906 0.75 -9.929688 0.75 -14.515625 C 0.75 -16.066406 0.945312 -17.789062 1.34375 -19.6875 C 2.289062 -23.570312 4.097656 -27.023438 6.765625 -30.046875 C 9.441406 -33.066406 12.710938 -35.410156 16.578125 -37.078125 C 20.441406 -38.753906 24.570312 -39.59375 28.96875 -39.59375 Z M 28.734375 -32.9375 C 27.691406 -32.9375 26.582031 -32 25.40625 -30.125 C 24.238281 -28.25 22.851562 -24.71875 21.25 -19.53125 C 19.65625 -14.34375 18.859375 -10.703125 18.859375 -8.609375 C 18.859375 -7.503906 19.03125 -6.765625 19.375 -6.390625 C 19.726562 -6.023438 20.207031 -5.84375 20.8125 -5.84375 C 21.851562 -5.738281 22.9375 -6.632812 24.0625 -8.53125 C 25.1875 -10.425781 26.597656 -14.117188 28.296875 -19.609375 C 29.835938 -24.453125 30.609375 -27.96875 30.609375 -30.15625 C 30.609375 -31.207031 30.445312 -31.929688 30.125 -32.328125 C 29.800781 -32.734375 29.335938 -32.9375 28.734375 -32.9375 Z M 28.734375 -32.9375 "/></g></g></g><g fill="#000000" fill-opacity="1"><g transform="translate(337.54252, 340.407136)"><g/></g></g><g fill="#ff914d" fill-opacity="1"><g transform="translate(319.439715, 346.06688)"><g><path d="M 42.8125 -29.484375 C 45.257812 -29.484375 46.484375 -28.535156 46.484375 -26.640625 C 46.484375 -26.441406 46.429688 -26.046875 46.328125 -25.453125 C 45.484375 -22.753906 43.613281 -21.40625 40.71875 -21.40625 L 29.265625 -21.40625 L 26.640625 -11.59375 C 26.296875 -10.195312 25.6875 -9.148438 24.8125 -8.453125 C 23.9375 -7.753906 22.925781 -7.40625 21.78125 -7.40625 C 20.632812 -7.40625 19.722656 -7.71875 19.046875 -8.34375 C 18.367188 -8.96875 18.03125 -9.828125 18.03125 -10.921875 C 18.03125 -11.472656 18.109375 -12.050781 18.265625 -12.65625 L 20.65625 -21.40625 L 9.578125 -21.40625 C 8.378906 -21.40625 7.46875 -21.640625 6.84375 -22.109375 C 6.21875 -22.585938 5.90625 -23.25 5.90625 -24.09375 C 5.90625 -24.5 5.984375 -24.953125 6.140625 -25.453125 C 6.484375 -26.742188 7.128906 -27.738281 8.078125 -28.4375 C 9.023438 -29.132812 10.222656 -29.484375 11.671875 -29.484375 L 22.828125 -29.484375 L 25.453125 -39.296875 C 25.796875 -40.691406 26.390625 -41.738281 27.234375 -42.4375 C 28.085938 -43.132812 29.085938 -43.484375 30.234375 -43.484375 C 31.378906 -43.484375 32.289062 -43.171875 32.96875 -42.546875 C 33.644531 -41.921875 33.984375 -41.0625 33.984375 -39.96875 C 33.984375 -39.414062 33.90625 -38.84375 33.75 -38.25 L 31.4375 -29.484375 Z M 42.8125 -29.484375 "/></g></g></g></svg>