<svg xmlns="http://www.w3.org/2000/svg" xmlns:xlink="http://www.w3.org/1999/xlink" width="500" zoomAndPan="magnify" viewBox="0 0 375 374.999991" height="500" preserveAspectRatio="xMidYMid meet" version="1.0"><defs><g/><clipPath id="ba4784ca64"><path d="M 8.609375 133.867188 L 366.351562 133.867188 L 366.351562 241.117188 L 8.609375 241.117188 Z M 8.609375 133.867188 " clip-rule="nonzero"/></clipPath><clipPath id="6f0dc24aba"><path d="M 43 139.261719 L 74 139.261719 L 74 204 L 43 204 Z M 43 139.261719 " clip-rule="nonzero"/></clipPath><clipPath id="bae293ef3d"><path d="M 12.9375 208 L 45 208 L 45 230 L 12.9375 230 Z M 12.9375 208 " clip-rule="nonzero"/></clipPath><clipPath id="2c2974df8b"><path d="M 79 220 L 105.1875 220 L 105.1875 237.511719 L 79 237.511719 Z M 79 220 " clip-rule="nonzero"/></clipPath></defs><g clip-path="url(#ba4784ca64)"><path stroke-linecap="butt" transform="matrix(0.75, 0, 0, 0.75, 8.608742, 133.865382)" fill="none" stroke-linejoin="miter" d="M 0.000843661 0.00240785 L 477.026947 0.00240785 L 477.026947 143.018051 L 0.000843661 143.018051 Z M 0.000843661 0.00240785 " stroke="#000000" stroke-width="4" stroke-opacity="1" stroke-miterlimit="4"/></g><g fill="#000000" fill-opacity="1"><g transform="translate(103.15576, 206.067248)"><g><path d="M 29.96875 -37.03125 C 33.894531 -37.03125 36.921875 -36.175781 39.046875 -34.46875 C 41.179688 -32.757812 42.25 -30.5 42.25 -27.6875 C 42.25 -26.570312 42.082031 -25.40625 41.75 -24.1875 C 40.707031 -20.476562 38.65625 -17.734375 35.59375 -15.953125 C 32.539062 -14.171875 28.679688 -13.28125 24.015625 -13.28125 L 18.296875 -13.28125 L 16.40625 -6.5625 C 16.320312 -6.332031 16.28125 -6.035156 16.28125 -5.671875 C 16.28125 -5.148438 16.398438 -4.722656 16.640625 -4.390625 C 16.890625 -4.054688 17.253906 -3.664062 17.734375 -3.21875 C 18.140625 -2.851562 18.414062 -2.578125 18.5625 -2.390625 C 18.71875 -2.203125 18.796875 -1.976562 18.796875 -1.71875 C 18.796875 -1.09375 18.5 -0.648438 17.90625 -0.390625 C 17.3125 -0.128906 16.4375 0 15.28125 0 L 1.328125 0 C 0.367188 0 -0.347656 -0.175781 -0.828125 -0.53125 C -1.316406 -0.882812 -1.484375 -1.375 -1.328125 -2 C -1.253906 -2.332031 -1.113281 -2.597656 -0.90625 -2.796875 C -0.707031 -3.003906 -0.40625 -3.238281 0 -3.5 C 0.625 -3.875 1.125 -4.265625 1.5 -4.671875 C 1.875 -5.078125 2.171875 -5.707031 2.390625 -6.5625 L 9.171875 -30.515625 C 9.316406 -31.003906 9.390625 -31.46875 9.390625 -31.90625 C 9.390625 -32.3125 9.320312 -32.65625 9.1875 -32.9375 C 9.0625 -33.21875 8.890625 -33.539062 8.671875 -33.90625 C 8.335938 -34.394531 8.171875 -34.785156 8.171875 -35.078125 C 8.171875 -35.191406 8.207031 -35.394531 8.28125 -35.6875 C 8.425781 -36.164062 8.75 -36.507812 9.25 -36.71875 C 9.75 -36.925781 10.519531 -37.03125 11.5625 -37.03125 Z M 28.515625 -25.1875 C 28.921875 -26.550781 29.125 -27.753906 29.125 -28.796875 C 29.125 -30.941406 28.125 -32.015625 26.125 -32.015625 L 23.625 -32.015625 L 19.6875 -18.296875 L 22.125 -18.296875 C 23.6875 -18.296875 24.957031 -18.785156 25.9375 -19.765625 C 26.914062 -20.742188 27.773438 -22.550781 28.515625 -25.1875 Z M 28.515625 -25.1875 "/></g></g></g><g fill="#000000" fill-opacity="1"><g transform="translate(141.126316, 206.067248)"><g><path d="M 27.296875 -29.40625 C 29.367188 -29.40625 31.023438 -28.773438 32.265625 -27.515625 C 33.515625 -26.253906 34.140625 -24.695312 34.140625 -22.84375 C 34.140625 -22.144531 34.0625 -21.5 33.90625 -20.90625 C 33.539062 -19.382812 32.835938 -18.210938 31.796875 -17.390625 C 30.765625 -16.578125 29.523438 -16.171875 28.078125 -16.171875 C 26.671875 -16.171875 25.601562 -16.503906 24.875 -17.171875 C 24.15625 -17.835938 23.515625 -18.726562 22.953125 -19.84375 C 22.660156 -20.476562 22.382812 -20.941406 22.125 -21.234375 C 21.863281 -21.535156 21.566406 -21.6875 21.234375 -21.6875 C 20.867188 -21.6875 20.546875 -21.535156 20.265625 -21.234375 C 19.984375 -20.941406 19.734375 -20.425781 19.515625 -19.6875 L 15.234375 -5.78125 C 15.160156 -5.59375 15.125 -5.316406 15.125 -4.953125 C 15.125 -4.460938 15.257812 -4.0625 15.53125 -3.75 C 15.8125 -3.4375 16.191406 -3.128906 16.671875 -2.828125 C 17.117188 -2.535156 17.414062 -2.296875 17.5625 -2.109375 C 17.71875 -1.921875 17.773438 -1.679688 17.734375 -1.390625 C 17.660156 -0.910156 17.390625 -0.554688 16.921875 -0.328125 C 16.460938 -0.109375 15.675781 0 14.5625 0 L 0.328125 0 C -0.628906 0 -1.320312 -0.15625 -1.75 -0.46875 C -2.175781 -0.78125 -2.332031 -1.195312 -2.21875 -1.71875 C -2.070312 -2.164062 -1.6875 -2.554688 -1.0625 -2.890625 C -0.5 -3.179688 -0.0351562 -3.53125 0.328125 -3.9375 C 0.703125 -4.351562 1.019531 -5.003906 1.28125 -5.890625 L 6.21875 -21.953125 C 6.300781 -22.140625 6.34375 -22.398438 6.34375 -22.734375 C 6.34375 -23.140625 6.257812 -23.453125 6.09375 -23.671875 C 5.925781 -23.898438 5.65625 -24.179688 5.28125 -24.515625 C 4.90625 -24.816406 4.644531 -25.078125 4.5 -25.296875 C 4.351562 -25.515625 4.335938 -25.8125 4.453125 -26.1875 C 4.671875 -27.039062 5.835938 -27.789062 7.953125 -28.4375 C 10.066406 -29.082031 12.269531 -29.40625 14.5625 -29.40625 C 16.082031 -29.40625 17.34375 -29.0625 18.34375 -28.375 C 19.34375 -27.695312 19.992188 -26.726562 20.296875 -25.46875 C 22.066406 -28.09375 24.398438 -29.40625 27.296875 -29.40625 Z M 27.296875 -29.40625 "/></g></g></g><g fill="#000000" fill-opacity="1"><g transform="translate(173.315122, 206.067248)"><g><path d="M 21.515625 -29.40625 C 26.554688 -29.40625 30.269531 -28.382812 32.65625 -26.34375 C 35.050781 -24.3125 36.25 -21.644531 36.25 -18.34375 C 36.25 -17.226562 36.097656 -15.988281 35.796875 -14.625 C 35.097656 -11.582031 33.785156 -8.921875 31.859375 -6.640625 C 29.929688 -4.359375 27.566406 -2.597656 24.765625 -1.359375 C 21.960938 -0.117188 18.929688 0.5 15.671875 0.5 C 10.523438 0.5 6.71875 -0.523438 4.25 -2.578125 C 1.789062 -4.640625 0.5625 -7.375 0.5625 -10.78125 C 0.5625 -11.9375 0.707031 -13.21875 1 -14.625 C 1.707031 -17.507812 3.050781 -20.070312 5.03125 -22.3125 C 7.007812 -24.5625 9.4375 -26.304688 12.3125 -27.546875 C 15.1875 -28.785156 18.253906 -29.40625 21.515625 -29.40625 Z M 21.34375 -24.46875 C 20.570312 -24.46875 19.75 -23.769531 18.875 -22.375 C 18 -20.988281 16.96875 -18.367188 15.78125 -14.515625 C 14.601562 -10.660156 14.015625 -7.953125 14.015625 -6.390625 C 14.015625 -5.578125 14.140625 -5.03125 14.390625 -4.75 C 14.648438 -4.476562 15.003906 -4.34375 15.453125 -4.34375 C 16.234375 -4.257812 17.039062 -4.921875 17.875 -6.328125 C 18.707031 -7.742188 19.753906 -10.488281 21.015625 -14.5625 C 22.160156 -18.15625 22.734375 -20.769531 22.734375 -22.40625 C 22.734375 -23.1875 22.613281 -23.722656 22.375 -24.015625 C 22.132812 -24.316406 21.789062 -24.46875 21.34375 -24.46875 Z M 21.34375 -24.46875 "/></g></g></g><g fill="#000000" fill-opacity="1"><g transform="translate(209.784648, 206.067248)"><g><path d="M 29.078125 -29.625 C 31.929688 -29.625 34.171875 -28.675781 35.796875 -26.78125 C 37.429688 -24.894531 38.25 -22.320312 38.25 -19.0625 C 38.25 -17.320312 38.007812 -15.488281 37.53125 -13.5625 C 36.414062 -8.96875 34.335938 -5.472656 31.296875 -3.078125 C 28.253906 -0.691406 24.734375 0.5 20.734375 0.5 C 18.179688 0.5 15.957031 -0.0351562 14.0625 -1.109375 L 12.28125 4.84375 C 12.132812 5.25 12.0625 5.632812 12.0625 6 C 12.0625 6.40625 12.15625 6.75 12.34375 7.03125 C 12.53125 7.3125 12.769531 7.582031 13.0625 7.84375 C 13.363281 8.132812 13.554688 8.375 13.640625 8.5625 C 13.734375 8.75 13.742188 8.972656 13.671875 9.234375 C 13.523438 9.710938 13.171875 10.050781 12.609375 10.25 C 12.054688 10.457031 11.207031 10.5625 10.0625 10.5625 L -2.671875 10.5625 C -3.628906 10.5625 -4.320312 10.40625 -4.75 10.09375 C -5.175781 9.78125 -5.296875 9.378906 -5.109375 8.890625 C -5.035156 8.597656 -4.90625 8.359375 -4.71875 8.171875 C -4.539062 7.984375 -4.285156 7.816406 -3.953125 7.671875 C -3.390625 7.296875 -2.941406 6.914062 -2.609375 6.53125 C -2.273438 6.144531 -1.976562 5.523438 -1.71875 4.671875 L 6.390625 -21.953125 C 6.503906 -22.285156 6.5625 -22.566406 6.5625 -22.796875 C 6.5625 -23.203125 6.46875 -23.523438 6.28125 -23.765625 C 6.09375 -24.003906 5.816406 -24.253906 5.453125 -24.515625 C 5.078125 -24.816406 4.816406 -25.078125 4.671875 -25.296875 C 4.523438 -25.515625 4.503906 -25.8125 4.609375 -26.1875 C 4.835938 -27.039062 6.003906 -27.789062 8.109375 -28.4375 C 10.222656 -29.082031 12.429688 -29.40625 14.734375 -29.40625 C 16.359375 -29.40625 17.695312 -29 18.75 -28.1875 C 19.8125 -27.375 20.414062 -26.242188 20.5625 -24.796875 C 23.082031 -28.015625 25.921875 -29.625 29.078125 -29.625 Z M 22.625 -13.125 C 23.507812 -16.414062 23.953125 -18.691406 23.953125 -19.953125 C 23.953125 -20.734375 23.832031 -21.242188 23.59375 -21.484375 C 23.351562 -21.722656 23.015625 -21.84375 22.578125 -21.84375 C 22.242188 -21.84375 21.816406 -21.6875 21.296875 -21.375 C 20.773438 -21.0625 20.253906 -20.535156 19.734375 -19.796875 L 15.34375 -5.21875 C 15.789062 -4.78125 16.328125 -4.5625 16.953125 -4.5625 C 17.953125 -4.5625 18.90625 -5.125 19.8125 -6.25 C 20.726562 -7.382812 21.664062 -9.675781 22.625 -13.125 Z M 22.625 -13.125 "/></g></g></g><g fill="#000000" fill-opacity="1"><g transform="translate(248.199956, 206.067248)"><g><path d="M 27.296875 -29.40625 C 29.367188 -29.40625 31.023438 -28.773438 32.265625 -27.515625 C 33.515625 -26.253906 34.140625 -24.695312 34.140625 -22.84375 C 34.140625 -22.144531 34.0625 -21.5 33.90625 -20.90625 C 33.539062 -19.382812 32.835938 -18.210938 31.796875 -17.390625 C 30.765625 -16.578125 29.523438 -16.171875 28.078125 -16.171875 C 26.671875 -16.171875 25.601562 -16.503906 24.875 -17.171875 C 24.15625 -17.835938 23.515625 -18.726562 22.953125 -19.84375 C 22.660156 -20.476562 22.382812 -20.941406 22.125 -21.234375 C 21.863281 -21.535156 21.566406 -21.6875 21.234375 -21.6875 C 20.867188 -21.6875 20.546875 -21.535156 20.265625 -21.234375 C 19.984375 -20.941406 19.734375 -20.425781 19.515625 -19.6875 L 15.234375 -5.78125 C 15.160156 -5.59375 15.125 -5.316406 15.125 -4.953125 C 15.125 -4.460938 15.257812 -4.0625 15.53125 -3.75 C 15.8125 -3.4375 16.191406 -3.128906 16.671875 -2.828125 C 17.117188 -2.535156 17.414062 -2.296875 17.5625 -2.109375 C 17.71875 -1.921875 17.773438 -1.679688 17.734375 -1.390625 C 17.660156 -0.910156 17.390625 -0.554688 16.921875 -0.328125 C 16.460938 -0.109375 15.675781 0 14.5625 0 L 0.328125 0 C -0.628906 0 -1.320312 -0.15625 -1.75 -0.46875 C -2.175781 -0.78125 -2.332031 -1.195312 -2.21875 -1.71875 C -2.070312 -2.164062 -1.6875 -2.554688 -1.0625 -2.890625 C -0.5 -3.179688 -0.0351562 -3.53125 0.328125 -3.9375 C 0.703125 -4.351562 1.019531 -5.003906 1.28125 -5.890625 L 6.21875 -21.953125 C 6.300781 -22.140625 6.34375 -22.398438 6.34375 -22.734375 C 6.34375 -23.140625 6.257812 -23.453125 6.09375 -23.671875 C 5.925781 -23.898438 5.65625 -24.179688 5.28125 -24.515625 C 4.90625 -24.816406 4.644531 -25.078125 4.5 -25.296875 C 4.351562 -25.515625 4.335938 -25.8125 4.453125 -26.1875 C 4.671875 -27.039062 5.835938 -27.789062 7.953125 -28.4375 C 10.066406 -29.082031 12.269531 -29.40625 14.5625 -29.40625 C 16.082031 -29.40625 17.34375 -29.0625 18.34375 -28.375 C 19.34375 -27.695312 19.992188 -26.726562 20.296875 -25.46875 C 22.066406 -28.09375 24.398438 -29.40625 27.296875 -29.40625 Z M 27.296875 -29.40625 "/></g></g></g><g fill="#000000" fill-opacity="1"><g transform="translate(280.388762, 206.067248)"><g><path d="M 14.625 -29.40625 C 16.769531 -29.40625 18.34375 -29 19.34375 -28.1875 C 20.351562 -27.375 20.859375 -26.257812 20.859375 -24.84375 C 20.859375 -24 20.726562 -23.1875 20.46875 -22.40625 L 15.34375 -5.78125 C 15.238281 -5.332031 15.1875 -4.941406 15.1875 -4.609375 C 15.1875 -4.128906 15.273438 -3.75 15.453125 -3.46875 C 15.640625 -3.195312 15.898438 -2.929688 16.234375 -2.671875 C 16.492188 -2.410156 16.679688 -2.195312 16.796875 -2.03125 C 16.910156 -1.863281 16.925781 -1.648438 16.84375 -1.390625 C 16.664062 -0.910156 16.296875 -0.554688 15.734375 -0.328125 C 15.179688 -0.109375 14.332031 0 13.1875 0 L 0.5 0 C -0.457031 0 -1.160156 -0.15625 -1.609375 -0.46875 C -2.054688 -0.78125 -2.203125 -1.195312 -2.046875 -1.71875 C -1.898438 -2.164062 -1.515625 -2.554688 -0.890625 -2.890625 C -0.328125 -3.179688 0.132812 -3.53125 0.5 -3.9375 C 0.875 -4.351562 1.191406 -5.003906 1.453125 -5.890625 L 6.28125 -21.953125 C 6.394531 -22.285156 6.453125 -22.566406 6.453125 -22.796875 C 6.453125 -23.203125 6.359375 -23.523438 6.171875 -23.765625 C 5.984375 -24.003906 5.707031 -24.253906 5.34375 -24.515625 C 4.96875 -24.816406 4.707031 -25.078125 4.5625 -25.296875 C 4.414062 -25.515625 4.398438 -25.8125 4.515625 -26.1875 C 4.734375 -27.039062 5.894531 -27.789062 8 -28.4375 C 10.113281 -29.082031 12.320312 -29.40625 14.625 -29.40625 Z M 18.359375 -41.6875 C 19.796875 -41.6875 20.992188 -41.210938 21.953125 -40.265625 C 22.921875 -39.328125 23.40625 -38.171875 23.40625 -36.796875 C 23.40625 -35.835938 23.15625 -34.894531 22.65625 -33.96875 C 22.15625 -33.039062 21.453125 -32.289062 20.546875 -31.71875 C 19.640625 -31.144531 18.628906 -30.859375 17.515625 -30.859375 C 16.109375 -30.859375 14.929688 -31.328125 13.984375 -32.265625 C 13.046875 -33.210938 12.554688 -34.390625 12.515625 -35.796875 C 12.515625 -36.722656 12.753906 -37.640625 13.234375 -38.546875 C 13.710938 -39.460938 14.394531 -40.210938 15.28125 -40.796875 C 16.175781 -41.390625 17.203125 -41.6875 18.359375 -41.6875 Z M 18.359375 -41.6875 "/></g></g></g><g fill="#000000" fill-opacity="1"><g transform="translate(300.736092, 206.067248)"><g><path d="M 21.515625 -29.40625 C 26.554688 -29.40625 30.269531 -28.382812 32.65625 -26.34375 C 35.050781 -24.3125 36.25 -21.644531 36.25 -18.34375 C 36.25 -17.226562 36.097656 -15.988281 35.796875 -14.625 C 35.097656 -11.582031 33.785156 -8.921875 31.859375 -6.640625 C 29.929688 -4.359375 27.566406 -2.597656 24.765625 -1.359375 C 21.960938 -0.117188 18.929688 0.5 15.671875 0.5 C 10.523438 0.5 6.71875 -0.523438 4.25 -2.578125 C 1.789062 -4.640625 0.5625 -7.375 0.5625 -10.78125 C 0.5625 -11.9375 0.707031 -13.21875 1 -14.625 C 1.707031 -17.507812 3.050781 -20.070312 5.03125 -22.3125 C 7.007812 -24.5625 9.4375 -26.304688 12.3125 -27.546875 C 15.1875 -28.785156 18.253906 -29.40625 21.515625 -29.40625 Z M 21.34375 -24.46875 C 20.570312 -24.46875 19.75 -23.769531 18.875 -22.375 C 18 -20.988281 16.96875 -18.367188 15.78125 -14.515625 C 14.601562 -10.660156 14.015625 -7.953125 14.015625 -6.390625 C 14.015625 -5.578125 14.140625 -5.03125 14.390625 -4.75 C 14.648438 -4.476562 15.003906 -4.34375 15.453125 -4.34375 C 16.234375 -4.257812 17.039062 -4.921875 17.875 -6.328125 C 18.707031 -7.742188 19.753906 -10.488281 21.015625 -14.5625 C 22.160156 -18.15625 22.734375 -20.769531 22.734375 -22.40625 C 22.734375 -23.1875 22.613281 -23.722656 22.375 -24.015625 C 22.132812 -24.316406 21.789062 -24.46875 21.34375 -24.46875 Z M 21.34375 -24.46875 "/></g></g></g><g fill="#000000" fill-opacity="1"><g transform="translate(337.214342, 206.067248)"><g/></g></g><g fill="#ff914d" fill-opacity="1"><g transform="translate(323.887747, 210.567541)"><g><path d="M 31.796875 -21.90625 C 33.617188 -21.90625 34.53125 -21.203125 34.53125 -19.796875 C 34.53125 -19.640625 34.488281 -19.34375 34.40625 -18.90625 C 33.78125 -16.90625 32.394531 -15.90625 30.25 -15.90625 L 21.734375 -15.90625 L 19.796875 -8.609375 C 19.535156 -7.578125 19.078125 -6.800781 18.421875 -6.28125 C 17.773438 -5.757812 17.023438 -5.5 16.171875 -5.5 C 15.328125 -5.5 14.648438 -5.726562 14.140625 -6.1875 C 13.640625 -6.65625 13.390625 -7.296875 13.390625 -8.109375 C 13.390625 -8.523438 13.445312 -8.953125 13.5625 -9.390625 L 15.34375 -15.90625 L 7.109375 -15.90625 C 6.222656 -15.90625 5.546875 -16.078125 5.078125 -16.421875 C 4.617188 -16.773438 4.390625 -17.269531 4.390625 -17.90625 C 4.390625 -18.195312 4.445312 -18.53125 4.5625 -18.90625 C 4.820312 -19.863281 5.300781 -20.601562 6 -21.125 C 6.707031 -21.644531 7.597656 -21.90625 8.671875 -21.90625 L 16.953125 -21.90625 L 18.90625 -29.1875 C 19.164062 -30.226562 19.609375 -31.003906 20.234375 -31.515625 C 20.867188 -32.035156 21.609375 -32.296875 22.453125 -32.296875 C 23.304688 -32.296875 23.984375 -32.0625 24.484375 -31.59375 C 24.984375 -31.132812 25.234375 -30.5 25.234375 -29.6875 C 25.234375 -29.28125 25.179688 -28.851562 25.078125 -28.40625 L 23.34375 -21.90625 Z M 31.796875 -21.90625 "/></g></g></g><path fill="#ff914d" d="M 88.371094 191.128906 L 74.875 181.601562 L 74.875 180.191406 L 88.371094 189.714844 Z M 88.371094 194.429688 L 74.875 184.90625 L 74.875 183.492188 L 88.371094 193.019531 Z M 88.371094 197.734375 L 74.875 188.207031 L 74.875 186.796875 L 88.371094 196.320312 Z M 88.371094 201.035156 L 74.875 191.511719 L 74.875 190.097656 L 88.371094 199.625 Z M 88.371094 204.339844 L 74.875 194.8125 L 74.875 193.402344 L 88.371094 202.925781 Z M 88.371094 207.640625 L 74.875 198.117188 L 74.875 196.703125 L 88.371094 206.230469 Z M 88.371094 210.945312 L 74.875 201.417969 L 74.875 200.003906 L 88.371094 209.53125 Z M 74.875 177.234375 L 71.960938 178.914062 L 71.960938 204.839844 L 73.289062 205.007812 L 73.953125 205.089844 L 74.4375 205.554688 L 77.40625 208.398438 L 84.785156 213.605469 L 87.019531 213.292969 L 74.875 204.71875 L 74.875 203.308594 L 88.371094 212.835938 L 88.371094 213.105469 L 88.75 213.050781 L 89.890625 212.890625 L 90.046875 213.089844 L 90.046875 187.945312 Z M 69.230469 180.488281 L 69.230469 191.238281 L 68.484375 191.238281 L 68.484375 180.917969 L 65.878906 182.421875 L 65.878906 199.226562 L 65.355469 199.226562 L 65.355469 182.722656 L 63.65625 183.699219 L 63.65625 201.238281 L 69.101562 201.238281 L 69.101562 204.480469 L 70.871094 204.703125 L 70.871094 179.542969 L 69.230469 180.488281 " fill-opacity="1" fill-rule="nonzero"/><path fill="#000000" d="M 62.164062 221.765625 L 62.308594 221.898438 L 62.308594 223.0625 L 62.164062 222.933594 L 61.625 222.457031 L 61.625 221.292969 L 62.164062 221.765625 " fill-opacity="1" fill-rule="nonzero"/><g clip-path="url(#6f0dc24aba)"><path fill="#000000" d="M 72.613281 162.332031 L 69.339844 159.433594 L 69.339844 152.96875 L 72.613281 155.867188 Z M 72.613281 169.964844 L 69.339844 167.066406 L 69.339844 160.601562 L 72.613281 163.5 Z M 68.753906 158.914062 L 66.628906 157.03125 L 65.480469 156.019531 L 65.480469 149.550781 L 66.628906 150.566406 L 68.753906 152.449219 Z M 68.753906 166.546875 L 66.628906 164.664062 L 65.480469 163.648438 L 65.480469 157.183594 L 66.628906 158.199219 L 68.753906 160.078125 Z M 68.753906 174.179688 L 66.628906 172.296875 L 65.480469 171.28125 L 65.480469 164.816406 L 66.628906 165.832031 L 68.753906 167.710938 Z M 64.894531 155.496094 L 64.394531 155.054688 L 62.164062 153.082031 L 61.625 152.601562 L 61.625 146.136719 L 62.164062 146.617188 L 64.394531 148.589844 L 64.894531 149.03125 Z M 64.894531 163.128906 L 64.394531 162.6875 L 62.164062 160.714844 L 61.625 160.234375 L 61.625 153.769531 L 62.164062 154.246094 L 64.394531 156.222656 L 64.894531 156.664062 Z M 64.894531 170.761719 L 64.394531 170.320312 L 62.164062 168.34375 L 61.625 167.867188 L 61.625 161.402344 L 62.164062 161.878906 L 64.394531 163.855469 L 64.894531 164.296875 Z M 64.894531 178.394531 L 64.394531 177.953125 L 62.164062 175.976562 L 61.625 175.5 L 61.625 169.035156 L 62.164062 169.511719 L 64.394531 171.488281 L 64.894531 171.929688 Z M 61.035156 152.082031 L 59.929688 151.105469 L 57.984375 149.382812 L 57.761719 149.1875 L 57.761719 142.722656 L 57.984375 142.917969 L 59.929688 144.640625 L 61.035156 145.617188 Z M 61.035156 159.714844 L 59.929688 158.738281 L 57.984375 157.011719 L 57.761719 156.816406 L 57.761719 150.351562 L 57.984375 150.550781 L 59.929688 152.273438 L 61.035156 153.25 Z M 61.035156 167.347656 L 59.929688 166.371094 L 57.984375 164.644531 L 57.761719 164.449219 L 57.761719 157.984375 L 57.984375 158.179688 L 59.929688 159.90625 L 61.035156 160.882812 Z M 61.035156 174.980469 L 59.929688 174 L 57.984375 172.277344 L 57.761719 172.082031 L 57.761719 165.617188 L 57.984375 165.8125 L 59.929688 167.535156 L 61.035156 168.511719 Z M 61.035156 182.609375 L 59.929688 181.632812 L 57.984375 179.910156 L 57.761719 179.714844 L 57.761719 173.246094 L 57.984375 173.445312 L 59.929688 175.167969 L 61.035156 176.144531 Z M 61.035156 190.242188 L 59.929688 189.265625 L 57.984375 187.539062 L 57.761719 187.34375 L 57.761719 180.878906 L 57.984375 181.074219 L 59.929688 182.800781 L 61.035156 183.777344 Z M 61.035156 197.875 L 59.929688 196.898438 L 57.984375 195.171875 L 57.761719 194.976562 L 57.761719 188.511719 L 57.984375 188.707031 L 59.929688 190.433594 L 61.035156 191.40625 Z M 72.679688 153.851562 L 68.722656 150.347656 L 66.488281 148.371094 L 64.257812 146.398438 L 62.023438 144.421875 L 59.792969 142.445312 L 57.84375 140.722656 L 56.230469 139.296875 L 43.140625 148.75 L 43.140625 163.347656 L 52.15625 167.011719 L 52.992188 167.351562 L 52.992188 203.035156 L 59.171875 203.859375 L 57.984375 202.804688 L 57.761719 202.609375 L 57.761719 196.144531 L 57.984375 196.339844 L 59.929688 198.0625 L 61.035156 199.039062 L 61.035156 201.238281 L 61.625 201.238281 L 61.625 191.929688 L 61.625 191.933594 L 61.625 184.296875 L 61.625 184.300781 L 61.625 176.664062 L 62.164062 177.144531 L 64.394531 179.117188 L 64.894531 179.558594 L 64.894531 180.644531 L 65.480469 180.308594 L 65.480469 180.078125 L 65.636719 180.21875 L 66.433594 179.757812 L 65.480469 178.914062 L 65.480469 172.449219 L 66.628906 173.464844 L 68.753906 175.34375 L 68.753906 178.421875 L 69.339844 178.082031 L 69.339844 175.863281 L 70.855469 177.207031 L 70.949219 177.15625 L 71.65625 176.746094 L 69.339844 174.699219 L 69.339844 168.234375 L 72.613281 171.132812 L 72.613281 176.195312 L 73.648438 175.597656 L 73.648438 154.710938 L 72.679688 153.851562 " fill-opacity="1" fill-rule="nonzero"/></g><path fill="#ff914d" d="M 28.28125 173.160156 L 39.609375 166.832031 L 39.609375 169.40625 L 40.875 168.507812 L 50.9375 172.601562 L 50.9375 168.964844 L 39.882812 164.46875 L 28.28125 173.160156 " fill-opacity="1" fill-rule="nonzero"/><path fill="#ff914d" d="M 28.28125 179.210938 L 39.609375 172.882812 L 39.609375 175.457031 L 40.875 174.558594 L 50.9375 178.652344 L 50.9375 175.015625 L 39.882812 170.519531 L 28.28125 179.210938 " fill-opacity="1" fill-rule="nonzero"/><path fill="#ff914d" d="M 28.28125 185.261719 L 39.609375 178.933594 L 39.609375 181.507812 L 40.875 180.609375 L 50.9375 184.703125 L 50.9375 181.066406 L 39.882812 176.570312 L 28.28125 185.261719 " fill-opacity="1" fill-rule="nonzero"/><path fill="#ff914d" d="M 28.28125 191.3125 L 39.609375 184.984375 L 39.609375 187.558594 L 40.875 186.660156 L 50.9375 190.753906 L 50.9375 187.117188 L 39.882812 182.621094 L 28.28125 191.3125 " fill-opacity="1" fill-rule="nonzero"/><path fill="#ff914d" d="M 28.28125 197.363281 L 39.609375 191.035156 L 39.609375 193.609375 L 40.875 192.710938 L 50.9375 196.804688 L 50.9375 193.167969 L 39.882812 188.671875 L 28.28125 197.363281 " fill-opacity="1" fill-rule="nonzero"/><path fill="#ff914d" d="M 28.28125 203.414062 L 31.117188 201.289062 L 30.328125 202.269531 Z M 28.28125 203.414062 " fill-opacity="1" fill-rule="nonzero"/><path fill="#ff914d" d="M 50.9375 199.21875 L 50.9375 202.855469 L 50.59375 202.714844 L 40.875 198.761719 L 39.609375 199.660156 L 39.609375 197.085938 L 33.59375 200.445312 L 33.105469 200.378906 L 32.449219 200.292969 L 39.878906 194.722656 L 50.9375 199.21875 " fill-opacity="1" fill-rule="nonzero"/><path fill="#ff914d" d="M 41.75 201.535156 L 39.300781 201.207031 L 39.878906 200.773438 Z M 41.75 201.535156 " fill-opacity="1" fill-rule="nonzero"/><g clip-path="url(#bae293ef3d)"><path fill="#000000" d="M 44.800781 220.976562 C 44.589844 220.804688 36.695312 215.554688 32.835938 212.402344 L 12.9375 229.3125 L 31.355469 209.953125 L 32.832031 208.402344 L 35.339844 211.035156 L 44.800781 220.976562 " fill-opacity="1" fill-rule="nonzero"/></g><path fill="#000000" d="M 67.738281 213.753906 L 59.875 213.753906 L 59.875 216.476562 L 56.753906 216.855469 L 56.082031 216.933594 L 55.59375 217.402344 L 49.796875 222.953125 L 32.835938 205.128906 L 18.714844 219.964844 L 32.835938 202.390625 L 60.960938 206.144531 L 60.960938 209.582031 L 62.441406 211.136719 L 62.441406 203.269531 L 67.070312 203.269531 L 67.070312 206.269531 L 73.035156 207.019531 L 80.535156 214.199219 L 67.738281 215.984375 L 67.738281 213.753906 " fill-opacity="1" fill-rule="nonzero"/><path fill="#000000" d="M 28.960938 222.402344 L 28.960938 223.273438 L 32.160156 223.273438 L 32.160156 219.203125 C 30.394531 219.203125 28.960938 220.636719 28.960938 222.402344 " fill-opacity="1" fill-rule="nonzero"/><path fill="#000000" d="M 33.421875 219.203125 L 33.421875 223.273438 L 36.621094 223.273438 L 36.621094 222.402344 C 36.621094 220.636719 35.1875 219.203125 33.421875 219.203125 " fill-opacity="1" fill-rule="nonzero"/><path fill="#000000" d="M 28.960938 227.730469 L 32.160156 227.730469 L 32.160156 224.53125 L 28.960938 224.53125 L 28.960938 227.730469 " fill-opacity="1" fill-rule="nonzero"/><path fill="#000000" d="M 33.421875 227.730469 L 36.621094 227.730469 L 36.621094 224.53125 L 33.421875 224.53125 L 33.421875 227.730469 " fill-opacity="1" fill-rule="nonzero"/><g clip-path="url(#2c2974df8b)"><path fill="#000000" d="M 105.394531 237.203125 L 93.890625 227.425781 L 89.03125 223.292969 C 87.558594 224.496094 85.371094 226.070312 83.433594 227.425781 C 81.191406 228.996094 79.28125 230.269531 79.191406 230.347656 L 81.96875 227.425781 L 86.96875 222.171875 L 87.871094 221.222656 L 89.03125 220.003906 L 90.246094 221.28125 L 105.394531 237.203125 " fill-opacity="1" fill-rule="nonzero"/></g><path fill="#000000" d="M 100.644531 229.515625 L 89.03125 217.3125 L 86.53125 219.941406 L 79.40625 227.425781 L 71.582031 235.652344 L 39.46875 235.652344 L 51.195312 224.421875 L 57 218.867188 L 61.902344 218.273438 L 61.902344 215.78125 L 65.710938 215.78125 L 65.710938 222.253906 L 66.925781 220.976562 L 66.925781 218.148438 L 82.402344 215.988281 L 89.03125 215.0625 L 100.644531 229.515625 " fill-opacity="1" fill-rule="nonzero"/><path fill="#000000" d="M 92.214844 231.519531 L 92.214844 232.238281 L 89.585938 232.238281 L 89.585938 228.886719 C 91.039062 228.886719 92.214844 230.066406 92.214844 231.519531 " fill-opacity="1" fill-rule="nonzero"/><path fill="#000000" d="M 88.546875 228.886719 L 88.546875 232.238281 L 85.917969 232.238281 L 85.917969 231.519531 C 85.917969 230.066406 87.09375 228.886719 88.546875 228.886719 " fill-opacity="1" fill-rule="nonzero"/><path fill="#000000" d="M 92.214844 235.902344 L 89.585938 235.902344 L 89.585938 233.269531 L 92.214844 233.269531 L 92.214844 235.902344 " fill-opacity="1" fill-rule="nonzero"/><path fill="#000000" d="M 88.546875 235.902344 L 85.917969 235.902344 L 85.917969 233.269531 L 88.546875 233.269531 L 88.546875 235.902344 " fill-opacity="1" fill-rule="nonzero"/><path fill="#000000" d="M 50.59375 202.714844 L 50.9375 202.855469 L 50.9375 202.761719 Z M 50.59375 202.714844 " fill-opacity="1" fill-rule="nonzero"/></svg>